<svg xmlns="http://www.w3.org/2000/svg" viewBox="0 0 512 512" id="banking">
  <g>
    <path d="M256 168a40 40 0 1 0-40-40 40 40 0 0 0 40 40Zm0-64a24 24 0 1 1-24 24 24 24 0 0 1 24-24Z"></path>
    <path d="M488 416h-8V232a8 8 0 0 0 5.21-14.07l-224-192a8 8 0 0 0-10.52.09l-216 192A8 8 0 0 0 40 232v184H24a8 8 0 0 0-8 8v56a8 8 0 0 0 8 8h464a8 8 0 0 0 8-8v-56a8 8 0 0 0-8-8ZM256.1 42.62 458.37 216H61ZM464 232v184h-32V232Zm-48 0v184H104V232Zm-360 0h32v184H56Zm424 240H32v-40h448Z"></path>
    <path d="M256 408a80 80 0 1 0-80-80 80.09 80.09 0 0 0 80 80Zm0-144a64 64 0 1 1-64 64 64.07 64.07 0 0 1 64-64Z"></path>
    <path d="M245.27 375.68a24.22 24.22 0 0 0 3.72 1.48v7a7 7 0 1 0 14 0v-7a24.22 24.22 0 0 0 3.72-1.48A23.86 23.86 0 0 0 280 354.21a31.08 31.08 0 0 0-17.28-27.95l-9.64-4.82A12.69 12.69 0 0 1 246 310a10 10 0 1 1 20 0v4.05a7 7 0 0 0 14 0V310a24 24 0 0 0-17-22.94V279a7 7 0 0 0-14 0v8.08A24 24 0 0 0 232 310a26.63 26.63 0 0 0 14.8 24l9.65 4.82a17.14 17.14 0 0 1 9.55 15.39 10 10 0 1 1-19.94 0 7 7 0 0 0-14 0v1.94a7 7 0 0 0 .35 2.21 23.85 23.85 0 0 0 12.86 17.32Z"></path>
  </g>
</svg>
