<svg xmlns="http://www.w3.org/2000/svg" id="talent-acquisition" viewBox="0 0 64 64">
  <path  fill="white" stroke="currentColor" d="m34.85,40.53l2.57-3.42,4.56.92c1.17.24,2.22.88,2.94,1.8.2.25.49.39.79.39.21,0,.43-.07.61-.21.44-.34.51-.97.17-1.4-1.02-1.3-2.48-2.21-4.12-2.54l-4.99-1-2.39-1.59v-2.31c3.27-1.44,5.63-4.57,5.96-8.29,1.74-.43,3.04-2,3.04-3.87v-3c0-5.19-4.28-11-10-11h-4.53c-2.72,0-5.18,1.32-6.71,3.49-.07-.03-.14-.06-.21-.08v-2.13c0-1.25-1.02-2.27-2.28-2.27h-2.54c-1.26,0-2.28,1.02-2.28,2.27v2.13c-.49.17-.97.37-1.43.6l-1.51-1.51c-.89-.89-2.33-.89-3.21,0l-1.8,1.8c-.89.89-.89,2.33,0,3.21l1.51,1.51c-.23.46-.43.94-.6,1.43h-2.13c-1.25,0-2.27,1.02-2.27,2.28v2.54c0,1.26,1.02,2.28,2.27,2.28h2.13c.17.49.37.97.6,1.43l-1.51,1.51c-.89.89-.89,2.33,0,3.21l1.8,1.8c.89.89,2.33.89,3.21,0l1.51-1.51c.46.23.94.43,1.43.6v2.13c0,1.25,1.02,2.27,2.28,2.27h2.54c1.26,0,2.28-1.02,2.28-2.27v-2.14c.47-.16.91-.35,1.35-.56.3.31.63.59.97.85l.62.62c.41.41.95.63,1.51.66v2.3l-2.39,1.59-4.98,1c-3.26.65-5.63,3.54-5.63,6.86v15.08c0,.55.45,1,1,1s1-.45,1-1v-15.08c0-2.38,1.69-4.44,4.02-4.9l4.56-.91,2.57,3.42.84,1.67-.98,12.72c-.02.29.08.58.29.78l3,3c.2.2.45.29.71.29s.51-.1.71-.29l3-3c.21-.21.31-.49.29-.78l-.98-12.72.84-1.67Zm-.96-2.05l-1.48-1.48,1.71-1.71,1.44.96-1.67,2.23Zm-.89-4.89l-2,2-2-2v-1.79c.65.13,1.32.2,2,.2s1.35-.07,2-.2v1.79Zm-2-3.59c-1.8,0-3.46-.61-4.8-1.62l-1.33-1.33s-.08-.05-.13-.08c-1.09-1.37-1.74-3.09-1.74-4.97v-1.34c.88-.43,2.4-1.37,3.39-3.09,1.76,1.2,5.75,3.23,12.61,3.42v1.01c0,4.41-3.59,8-8,8Zm-10.38-7.26c-.51.22-1.06.35-1.62.35-2.26,0-4.09-1.83-4.09-4.09,0-1.91,1.32-3.5,3.09-3.95v3.95c0,1.72,1.1,3.18,2.62,3.74Zm8.85-15.74h4.53c4.58,0,8,4.75,8,9v3c0,.74-.41,1.37-1,1.72v-.72c0-.55-.45-1-1-1-9.39,0-13.26-3.67-13.29-3.71-.24-.25-.6-.35-.94-.27-.34.08-.61.33-.72.66-.82,2.47-3.35,3.36-3.37,3.37-.41.14-.68.52-.68.95v.72c-.59-.35-1-.98-1-1.72v-5c0-1.65,1.35-3,3-3,.38,0,.73-.21.89-.55,1.06-2.13,3.2-3.45,5.58-3.45Zm-8.18,20.88c-.44.12-.74.51-.74.97v2.88c0,.15-.13.27-.28.27h-2.54c-.15,0-.28-.12-.28-.27v-2.88c0-.46-.31-.85-.75-.97-.83-.21-1.62-.54-2.35-.98-.39-.24-.9-.17-1.22.15l-2.04,2.04c-.11.11-.28.11-.39,0l-1.8-1.8c-.07-.07-.08-.14-.08-.19s.01-.13.08-.19l2.04-2.04c.32-.32.39-.83.15-1.22-.44-.72-.76-1.51-.98-2.35-.11-.44-.51-.75-.97-.75h-2.88c-.15,0-.27-.13-.27-.28v-2.54c0-.15.12-.28.27-.28h2.88c.46,0,.85-.31.97-.75.21-.83.54-1.62.98-2.35.24-.39.17-.9-.15-1.22l-2.04-2.04c-.07-.07-.08-.14-.08-.19s.01-.13.08-.19l1.8-1.8c.11-.11.28-.11.39,0l2.04,2.04c.32.32.83.39,1.22.15.72-.44,1.51-.76,2.35-.98.44-.11.75-.51.75-.97v-2.88c0-.15.13-.27.28-.27h2.54c.15,0,.28.12.28.27v2.88c0,.16.05.3.11.43-1.29.69-2.24,1.93-2.55,3.4-2.94.43-5.2,2.96-5.2,6.02,0,3.36,2.73,6.09,6.09,6.09.81,0,1.61-.18,2.35-.49.27,1.01.7,1.97,1.26,2.83-.42.18-.86.34-1.31.46Zm6.58,7.4l1.71,1.71-1.48,1.48-1.67-2.23,1.44-.96Zm3.13,21.3l-1.97-1.97.96-12.54c.01-.18-.02-.36-.1-.52l-.68-1.36,1.78-1.78,1.78,1.78-.68,1.36c-.08.16-.12.34-.1.52l.96,12.54-1.97,1.97Z"></path>
  <path  fill="white"  d="M20 45c-.55 0-1 .45-1 1v12c0 .55.45 1 1 1s1-.45 1-1v-12c0-.55-.45-1-1-1ZM59.87 47.44c-.28-.85-.99-1.46-1.86-1.59l-4.08-.62-1.85-3.9h0c-.39-.83-1.19-1.34-2.08-1.34s-1.69.51-2.08 1.34l-1.85 3.9-4.08.62c-.86.13-1.57.74-1.86 1.59-.29.88-.08 1.83.57 2.48l2.97 3-.71 4.28c-.15.93.22 1.84.97 2.37.71.51 1.63.56 2.4.14l3.68-2.01 3.68 2.01c.34.19.72.28 1.09.28.46 0 .92-.14 1.31-.42.75-.53 1.12-1.44.97-2.37l-.71-4.28 2.97-3c.64-.65.86-1.6.57-2.48Zm-1.99 1.08-3.32 3.37c-.22.23-.33.55-.27.87l.79 4.78c.04.25-.11.38-.16.41-.14.1-.25.04-.28.02l-4.16-2.27c-.15-.08-.31-.12-.48-.12s-.33.04-.48.12l-4.16 2.27s-.15.08-.28-.02c-.05-.03-.2-.16-.16-.41l.79-4.78c.05-.32-.05-.64-.27-.87l-3.32-3.37c-.17-.17-.11-.38-.09-.44.03-.08.1-.22.26-.24l4.61-.7c.33-.05.61-.26.75-.56l2.08-4.38c.15-.33.4-.33.55 0l2.08 4.38c.14.3.42.51.75.56l4.61.7c.16.02.23.16.26.24.02.06.07.28-.09.44Z"></path>
</svg>
