<svg xmlns="http://www.w3.org/2000/svg" viewBox="0 0 64 64" id="search-real-estate">
  <path d="M60.7471,54.7129l-5.208-5.2075a13.0274,13.0274,0,0,0-2.4922-14.8325A12.8891,12.8891,0,0,0,50.62,32.77V25.52H55a1,1,0,0,0,.9873-1.1582A24.4319,24.4319,0,0,0,50.62,13.6758V3a1,1,0,0,0-1-1H40.66a1,1,0,0,0-1,1V5.353A44.0922,44.0922,0,0,0,29.19,2.0181a.9683.9683,0,0,0-.3785,0C5.0859,6.5776,2.04,24.1865,2.0122,24.3643A1,1,0,0,0,3,25.52H7.38v23.1H5.69a1,1,0,0,0-1,1V55a1,1,0,0,0,1,1H39.256a12.8718,12.8718,0,0,0,9.3924-.07c.2922-.1156.5807-.2463.8634-.3842l5.2011,5.2016a4.2668,4.2668,0,1,0,6.0342-6.0342ZM8.38,23.52H4.2549C5.3115,19.7036,10.09,7.7256,29,4.0186A40.7892,40.7892,0,0,1,40.1929,7.854,1,1,0,0,0,41.66,6.97V4h6.96V14.04a1,1,0,0,0,.2383.648,24.4569,24.4569,0,0,1,4.87,8.832H49.62a1,1,0,0,0-1,1v7.2525c-.0191-.0075-.0392-.0113-.0583-.0187a12.9035,12.9035,0,0,0-1.3272-.4257c-.0813-.0215-.162-.0434-.2436-.0633a13.0761,13.0761,0,0,0-1.3433-.2555c-.0789-.0108-.1577-.0188-.2368-.028a13.1931,13.1931,0,0,0-1.3951-.0946c-.0452-.0006-.09.0022-.1354.0022a13.2171,13.2171,0,0,0-1.3955.072c-.0371.0039-.0744.0052-.1115.0094a13.1753,13.1753,0,0,0-1.3881.24c-.0737.0166-.1472.0313-.2206.0492a12.9531,12.9531,0,0,0-1.3137.3943c-.0773.0276-.1536.0565-.23.0856a12.7664,12.7664,0,0,0-1.2725.56c-.0568.0289-.1118.0613-.1683.0911-.1061.0562-.2121.1123-.3168.1715A.9948.9948,0,0,0,37.07,32.48H20.93a1,1,0,0,0-1,1V48.62H9.38V24.52A1,1,0,0,0,8.38,23.52ZM33.9835,35.4241c-.0744.0876-.1418.1795-.2136.2687-.14.1735-.2787.3472-.4084.5267-.0786.1087-.1506.2208-.2255.3315-.1125.1665-.2242.333-.3284.5037-.0735.12-.1418.243-.2111.3654-.0947.1672-.1874.3351-.2744.5059-.065.1277-.1265.2566-.1872.3862q-.12.2571-.23.5182-.0824.1977-.1584.3973c-.0672.1776-.1292.3565-.1886.5365-.044.1336-.0881.2669-.1279.4017-.0545.1851-.1021.3717-.1484.5589-.0327.1324-.0675.2641-.0961.3973-.0429.1994-.0768.4-.11.6013-.02.1228-.0449.2446-.0619.3678-.0333.2409-.0553.4829-.0752.7253-.007.0847-.0192.169-.0246.2539q-.03.4883-.0247.9783c.0011.0982.01.1962.0133.2944.0079.23.0168.46.0368.6892.0113.1307.03.2607.0458.3911.0231.1972.0465.3943.0787.5906.0228.1392.0521.2774.0794.4159.0369.1864.075.3725.12.5576.0347.1422.0741.2834.1137.4247.0506.18.1039.36.1625.5382q.0692.2107.1461.4193c.03.0831.055.1677.0872.25H30V34.48h4.87q-.0988.0953-.1977.1938C34.4307,34.9157,34.2023,35.1667,33.9835,35.4241ZM21.93,48.62V34.48H28V48.62ZM6.69,54V50.62H28.9976L29,50.6206l.0024-.0005h3.7583c.0182.03.0418.0569.06.0866a12.573,12.573,0,0,0,.7575,1.0911c.0523.0674.1073.1327.161.1993a12.4247,12.4247,0,0,0,1.9593,1.9713c.0122.01.023.0218.0352.0316Zm41.2207.0708a10.9411,10.9411,0,0,1-8.1235-.001,11.0011,11.0011,0,0,1-5.5693-4.9287,11.0765,11.0765,0,0,1,1.8686-13.0537,10.1029,10.1029,0,0,1,1.5513-1.2842,10.6855,10.6855,0,0,1,1.2284-.7237c.0447-.0227.0881-.0482.133-.07a10.876,10.876,0,0,1,1.2381-.5109c.0675-.0234.1346-.0482.2026-.07a11.0293,11.0293,0,0,1,1.259-.3263q.1153-.0228.2311-.043a11.161,11.161,0,0,1,1.2856-.1528c.0734-.0042.147-.0052.2205-.0081.3166-.0123.6333.001.95.0156.2083.01.4166.0168.6242.0381.2779.0285.5535.0771.829.1266.1977.0355.3962.0638.592.11.3.0711.594.1675.8881.264.1647.0541.3326.0958.4952.1579a10.7479,10.7479,0,0,1,1.309.6l.02.01a10.7841,10.7841,0,0,1,2.4878,1.8667A11.0191,11.0191,0,0,1,53.4478,49.21l-.0088.0167a10.6457,10.6457,0,0,1-1.8316,2.4316,10.3439,10.3439,0,0,1-2.4,1.791A10.5,10.5,0,0,1,47.9106,54.0708ZM59.333,59.333a2.2706,2.2706,0,0,1-3.206,0l-4.8238-4.8247c.0455-.0316.0894-.0707.1347-.1032.19-.1366.3791-.2827.5666-.4342.084-.0679.1687-.1325.2521-.2034.2673-.2272.5326-.466.7947-.725.2517-.2547.4865-.5163.7115-.7815.0695-.082.1336-.1658.2006-.2488.1529-.1894.3-.3806.4392-.5746.033-.0461.0721-.09.1042-.1363L59.333,56.127A2.2706,2.2706,0,0,1,59.333,59.333Z"></path>
  <path d="M20.9312,27.3105H37.0688a1,1,0,0,0,1-1v-2.69a9.0688,9.0688,0,0,0-18.1376,0v2.69A1,1,0,0,0,20.9312,27.3105Zm1-3.69a7.0688,7.0688,0,0,1,14.1376,0v1.69H21.9312Z"></path>
</svg>
