<svg xmlns="http://www.w3.org/2000/svg" enable-background="new 0 0 221.987 299.76" viewBox="0 0 221.987 299.76" id="reading-newspaper">
  <path fill="white" d="M140.273 91.703c8.544 6.457 19.181 10.292 30.716 10.292 28.165 0 50.997-22.832 50.997-50.997S199.155 0 170.99 0s-50.997 22.832-50.997 50.997c0 12.583 4.567 24.094 12.121 32.988l-13.451 24.212L140.273 91.703zM125.663 52.947c0-24.024 19.476-43.5 43.5-43.5 24.024 0 43.5 19.476 43.5 43.5 0 24.024-19.476 43.5-43.5 43.5C145.138 96.447 125.663 76.972 125.663 52.947zM9.53 161.797c.127 12.264-.001 24.979-.691 35.113l-.087 1.275 1.246.288c11.909 2.753 24.467 5.868 35.398 8.654l-6.257 79.295c-.537 6.809 4.547 12.761 11.353 13.297 6.807.537 12.763-4.543 13.3-11.352l5.911-74.909c3.849 1.024 6.132 1.643 6.22 1.667l.393.106.393-.106c.088-.024 2.37-.643 6.218-1.667l5.911 74.909c.537 6.809 6.493 11.889 13.3 11.352 6.805-.537 11.89-6.489 11.352-13.297l-6.257-79.295c10.93-2.786 23.488-5.901 35.398-8.654l1.246-.288-.087-1.275c-.691-10.134-.818-22.849-.692-35.112 5.579-6.365 8.502-13.755 9.025-15.156 1.541-4.131-.556-8.718-4.682-10.271-1.237-.466-2.518-.598-3.748-.452.365-10.71.754-18.135.764-18.327l.125-2.358-2.188.889c-.241.098-13.477 5.443-28.984 10.265-3.561-6.804-8.642-12.303-16.716-12.851-.348-.048-.701-.081-1.063-.081h-1.613c-4.491 4.622-10.766 7.501-17.704 7.501s-13.213-2.879-17.704-7.501h-1.614c-.362 0-.715.034-1.063.082-8.073.548-13.155 6.047-16.716 12.851-15.507-4.822-28.744-10.167-28.985-10.265l-2.188-.889.125 2.358c.01.192.398 7.611.764 18.314-1.222-.145-2.495-.015-3.727.444-4.14 1.544-6.245 6.151-4.701 10.291C1.029 148.042 3.952 155.433 9.53 161.797zM11.283 119.769c9.288 3.647 45.242 17.243 65.032 17.243 19.79 0 55.743-13.596 65.03-17.243-.481 10.087-2.227 50.496-.631 76.07-28.607 6.648-60.508 15.234-64.399 16.285-3.891-1.051-35.792-9.637-64.4-16.285C13.511 170.265 11.765 129.857 11.283 119.769z"></path>
  <polygon points="17.607 155.524 40.595 162.178 39.688 136.469 17.002 129.512"></polygon>
  <polygon points="29.262 185.295 28.772 169.856 16.502 165.678 16.829 181.3"></polygon>
  <polygon points="32.163 186.85 44.595 190.846 44.105 175.407 31.835 171.229"></polygon>
  <rect width="2" height="28.789" x="56.96" y="127.951" transform="rotate(-77.28 57.958 142.34)"></rect>
  <rect width="2" height="28.789" x="56.96" y="135.617" transform="rotate(-77.28 57.958 150.006)"></rect>
  <rect width="2" height="28.789" x="56.96" y="142.618" transform="rotate(-77.28 57.958 157.006)"></rect>
  <rect width="2" height="28.789" x="56.96" y="150.285" transform="rotate(-77.28 57.958 164.672)"></rect>
  <rect width="2" height="25.548" x="58.419" y="166.572" transform="rotate(-76.42 59.419 179.351)"></rect>
  <rect width="2" height="25.548" x="58.419" y="173.072" transform="rotate(-76.42 59.418 185.851)"></rect>
  <rect width="2" height="25.548" x="58.419" y="180.239" transform="rotate(-76.42 59.418 193.019)"></rect>
  <rect width="2" height="57.003" x="42.96" y="139.51" transform="rotate(-75.09 43.96 168.015)"></rect>
  <rect width="2" height="57.003" x="42.96" y="168.344" transform="rotate(-75.09 43.959 196.85)"></rect>
  <circle cx="76.315" cy="96.257" r="22.5"></circle>
  <polygon points="79.918 171.345 134.668 156.846 135.335 128.512 79.918 143.678"></polygon>
  <polygon points="80.168 175.428 80.409 176.399 134.909 162.899 134.428 160.958 79.928 174.458"></polygon>
  <polygon points="79.928 180.308 80.168 181.279 80.409 182.25 134.909 168.75 134.428 166.808"></polygon>
  <polygon points="79.928 186.159 80.168 187.13 80.409 188.1 134.909 174.6 134.428 172.659"></polygon>
  <polygon points="79.928 192.008 80.168 192.979 80.409 193.95 134.909 180.45 134.428 178.508"></polygon>
  <polygon points="79.928 197.858 80.168 198.829 80.409 199.799 134.909 186.299 134.428 184.358"></polygon>
  <polygon points="79.928 203.708 80.168 204.678 80.409 205.649 134.909 192.149 134.428 190.208"></polygon>
</svg>